<svg xmlns="http://www.w3.org/2000/svg" width="92" height="96" viewBox="0 0 92 96"><rect x="4" y="22" width="84" height="68" rx="10" fill="#C9D3DE" stroke="#3B2414" stroke-width="3" stroke-linejoin="round"/><rect x="4" y="76" width="84" height="14" rx="6" fill="#8796A8" stroke="#3B2414" stroke-width="3" stroke-linejoin="round"/><rect x="14" y="6" width="64" height="30" rx="8" fill="#E5333B" stroke="#3B2414" stroke-width="3" stroke-linejoin="round"/><text x="46" y="28" font-family="Marker" font-size="15" text-anchor="middle" fill="#FFFFFF" stroke="#3B2414" stroke-width="3" stroke-linejoin="round" paint-order="stroke">SODA</text><rect x="40" y="36" width="12" height="8" fill="#8796A8" stroke="#3B2414" stroke-width="3" stroke-linejoin="round"/><g transform="translate(46 60)"><rect x="2" y="-24" width="4" height="14" fill="#FFFFFF" stroke="#3B2414" stroke-width="2" transform="rotate(14)"/><path d="M-12 -12 h24 l-3 30 h-18z" fill="#4CA6FF" stroke="#3B2414" stroke-width="3" stroke-linejoin="round"/><rect x="-14" y="-15" width="28" height="6" rx="3" fill="#FFFFFF" stroke="#3B2414" stroke-width="3" stroke-linejoin="round"/><path d="M-9 0 h18" stroke="#FFFFFF" stroke-width="3" opacity=".7"/></g><path transform="translate(80 16) scale(.9)" d="M0 -10 L3 -3 L10 0 L3 3 L0 10 L-3 3 L-10 0 L-3 -3Z" fill="#FFE14D" stroke="#7A4E00" stroke-width="1.5"/><text x="46" y="88" font-family="Marker" font-size="14" text-anchor="middle" fill="#7CFF6B" stroke="#3B2414" stroke-width="4" stroke-linejoin="round" paint-order="stroke">READY!</text></svg>