<svg xmlns="http://www.w3.org/2000/svg" width="200" height="200" viewBox="0 0 200 200"><defs><linearGradient id="m1" x1="0" x2="1" y1="0" y2="0"><stop offset="0" stop-color="#1E2024"/><stop offset=".55" stop-color="#5A5F68"/><stop offset="1" stop-color="#1E2024"/></linearGradient><linearGradient id="m2" x1="0" x2="1" y1="0" y2="0"><stop offset="0" stop-color="#0E0F12"/><stop offset=".55" stop-color="#33363C"/><stop offset="1" stop-color="#0E0F12"/></linearGradient><linearGradient id="wd" x1="0" x2="1" y1="0" y2="0"><stop offset="0" stop-color="#4A2E18"/><stop offset=".55" stop-color="#8E5E36"/><stop offset="1" stop-color="#4A2E18"/></linearGradient><linearGradient id="gl" x1="0" x2="1" y1="0" y2="0"><stop offset="0" stop-color="#1C1C16"/><stop offset=".55" stop-color="#46463A"/><stop offset="1" stop-color="#1C1C16"/></linearGradient><radialGradient id="fl"><stop offset="0" stop-color="#FFE8A0" stop-opacity="0.6"/><stop offset="1" stop-color="#FF9020" stop-opacity="0"/></radialGradient><linearGradient id="top" x1="0" x2="0" y1="0" y2="1"><stop offset="0" stop-color="#1A1C20"/><stop offset="1" stop-color="#4E535C"/></linearGradient><linearGradient id="tn" x1="0" x2="1" y1="0" y2="0"><stop offset="0" stop-color="#4E4430"/><stop offset=".55" stop-color="#A8956A"/><stop offset="1" stop-color="#4E4430"/></linearGradient><linearGradient id="rd" x1="0" x2="1" y1="0" y2="0"><stop offset="0" stop-color="#6A1A12"/><stop offset=".55" stop-color="#D84A3A"/><stop offset="1" stop-color="#6A1A12"/></linearGradient><radialGradient id="flg"><stop offset="0" stop-color="#9AFFA0" stop-opacity="0.8"/><stop offset="1" stop-color="#1AC83A" stop-opacity="0"/></radialGradient><linearGradient id="st" x1="0" x2="1" y1="0" y2="0"><stop offset="0" stop-color="#3A3C42"/><stop offset=".55" stop-color="#8A8E96"/><stop offset="1" stop-color="#3A3C42"/></linearGradient></defs><g transform="translate(100 34) scale(1.2)"><circle r="40" fill="url(#fl)"/><path d="M0 -34 L8 -10 L30 -18 L12 0 L32 14 L8 10 L0 34 L-8 10 L-30 16 L-12 0 L-28 -18 L-8 -10Z" fill="#FFB43A" opacity=".9"/><path d="M0 -20 L5 -6 L18 -10 L7 0 L18 8 L5 6 L0 20 L-5 6 L-18 8 L-7 0 L-18 -10 L-5 -6Z" fill="#FFF2B0"/><circle r="7" fill="#FFF"/></g><path d="M66 147 L86 45 L114 45 L134 147Z" fill="url(#m1)" stroke="#000" stroke-width="2"/><ellipse cx="100" cy="63" rx="8" ry="3" fill="#0C0D10"/><ellipse cx="100" cy="79" rx="10" ry="3" fill="#0C0D10"/><ellipse cx="100" cy="95" rx="12" ry="3" fill="#0C0D10"/><ellipse cx="100" cy="111" rx="14" ry="3" fill="#0C0D10"/><ellipse cx="100" cy="127" rx="16" ry="3" fill="#0C0D10"/><path d="M96 35 h8 v12 h-8z" fill="#0C0D10"/><path d="M52 133 h96 l6 74 h-108z" fill="url(#m2)" stroke="#000" stroke-width="2"/><rect x="20" y="141" width="40" height="44" rx="4" fill="#4A5A3A" stroke="#000" stroke-width="2"/><path d="M26 151 h28 M26 163 h28" stroke="#2A3420" stroke-width="2"/><g transform="translate(70 121) scale(0.85 0.85)"><path d="M-34 10 q-4 -26 14 -34 q12 -6 26 -2 l22 8 q12 6 8 22 l-6 40 h-60z" fill="url(#gl)" stroke="#0C0C08" stroke-width="2"/><path d="M-22 -14 q10 -4 22 0 M-26 0 q12 -4 26 0 M-26 14 q12 -4 26 0" stroke="#5A5A4C" stroke-width="2.5" fill="none" stroke-linecap="round"/><path d="M14 -18 q14 4 14 18" stroke="#5A5A4C" stroke-width="2" fill="none"/></g><g transform="translate(136 190) scale(-1.05 1.05)"><path d="M-34 10 q-4 -26 14 -34 q12 -6 26 -2 l22 8 q12 6 8 22 l-6 40 h-60z" fill="url(#gl)" stroke="#0C0C08" stroke-width="2"/><path d="M-22 -14 q10 -4 22 0 M-26 0 q12 -4 26 0 M-26 14 q12 -4 26 0" stroke="#5A5A4C" stroke-width="2.5" fill="none" stroke-linecap="round"/><path d="M14 -18 q14 4 14 18" stroke="#5A5A4C" stroke-width="2" fill="none"/></g></svg>