<svg xmlns="http://www.w3.org/2000/svg" width="160" height="160" viewBox="0 0 160 160"><defs><linearGradient id="su" x1="0" x2="1" y1="0" y2="0"><stop offset="0" stop-color="#3A4228"/><stop offset=".55" stop-color="#6E7A4E"/><stop offset="1" stop-color="#3A4228"/></linearGradient><linearGradient id="sv" x1="0" x2="1" y1="0" y2="0"><stop offset="0" stop-color="#5E5238"/><stop offset=".55" stop-color="#A08C62"/><stop offset="1" stop-color="#5E5238"/></linearGradient><linearGradient id="sk" x1="0" x2="1" y1="0" y2="0"><stop offset="0" stop-color="#9A6A4A"/><stop offset=".55" stop-color="#D9A57C"/><stop offset="1" stop-color="#9A6A4A"/></linearGradient><linearGradient id="sh" x1="0" x2="1" y1="0" y2="0"><stop offset="0" stop-color="#2E3422"/><stop offset=".55" stop-color="#5C6644"/><stop offset="1" stop-color="#2E3422"/></linearGradient></defs><ellipse cx="80" cy="156" rx="28" ry="5" fill="#000" opacity=".35"/><path d="M66 98 h12 l-1 52 h-11z M82 98 h12 l1 52 h-12z" fill="url(#su)" stroke="#2A301C" stroke-width="1.5"/><path d="M63 146 h16 v10 h-18z M81 146 h16 l2 10 h-18z" fill="#2A2420"/><path d="M60 50 Q80 42 100 50 L98 102 H62Z" fill="url(#su)" stroke="#2A301C" stroke-width="2"/><path d="M64 56 h32 v38 h-32z" fill="url(#sv)" stroke="#4A3F2A" stroke-width="1.5"/><rect x="68" y="60" width="24" height="26" rx="3" fill="#56603E" stroke="#2A301C"/><path d="M58 52 l-6 34 l8 2 l6 -30z M102 52 l6 34 l-8 2 l-6 -30z" fill="url(#su)" stroke="#2A301C" stroke-width="1.5"/><rect x="75" y="38" width="10" height="10" fill="#9A6A4A"/><ellipse cx="80" cy="30" rx="12" ry="13" fill="url(#sk)" stroke="#7A5038" stroke-width="1.5"/><path d="M66 28 Q66 12 80 12 Q94 12 94 28 L98 30 L62 30Z" fill="url(#sh)" stroke="#262B1A" stroke-width="1.5"/></svg>