<svg xmlns="http://www.w3.org/2000/svg" width="480" height="360" viewBox="0 0 480 360"><defs><linearGradient id="mbg" x1="0" x2="0" y1="0" y2="1"><stop offset="0" stop-color="#06080E"/><stop offset="1" stop-color="#2A1E2A"/></linearGradient><radialGradient id="mmo"><stop offset="0" stop-color="#C8D4D8" stop-opacity="0.4"/><stop offset="1" stop-color="#C8D4D8" stop-opacity="0"/></radialGradient><linearGradient id="ttl" x1="0" x2="0" y1="0" y2="1"><stop offset="0" stop-color="#FFE8B0"/><stop offset=".55" stop-color="#F09A3A"/><stop offset="1" stop-color="#A8281A"/></linearGradient><linearGradient id="tg" x1="0" x2="0" y1="0" y2="1"><stop offset="0" stop-color="#0A0E0A"/><stop offset="1" stop-color="#1E2A1E"/></linearGradient><linearGradient id="gb" x1="0" x2="1" y1="0" y2="0"><stop offset="0" stop-color="#4A4230"/><stop offset=".55" stop-color="#8A7E5E"/><stop offset="1" stop-color="#4A4230"/></linearGradient><radialGradient id="gl"><stop offset="0" stop-color="#FFF6C0" stop-opacity="0.8"/><stop offset="1" stop-color="#FFE070" stop-opacity="0"/></radialGradient></defs><rect width="480" height="360" fill="url(#mbg)"/><circle cx="400" cy="70" r="70" fill="url(#mmo)"/><circle cx="400" cy="70" r="24" fill="#E8EADA" opacity=".9"/><path d="M0 300 L40 250 L60 270 L90 230 L120 262 L160 220 L200 270 L240 240 L280 268 L330 226 L370 262 L420 232 L480 270 L480 360 L0 360Z" fill="#0A0C10"/><g opacity=".9"><path d="M300 236 h120 v-70 l-60 -40 l-60 40z" fill="#120C0C"/><rect x="318" y="182" width="16" height="20" fill="#F2C860" opacity=".8"/><rect x="384" y="182" width="16" height="20" fill="#F2C860" opacity=".5"/></g><rect y="250" width="480" height="110" fill="url(#tg)"/><g transform="translate(150 70) scale(1.55)"><ellipse cx="80" cy="156" rx="34" ry="6" fill="#000" opacity=".4"/><path d="M61 100 h18 l-1 48 h-16z" fill="#3A3028" stroke="#231d18" stroke-width="1.5"/><path d="M60 146 h20 q3 0 3 6 v4 h-23z" fill="#1A1410"/><path d="M81 100 h18 l-1 48 h-16z" fill="#3A3028" stroke="#231d18" stroke-width="1.5"/><path d="M80 146 h20 q3 0 3 6 v4 h-23z" fill="#1A1410"/><path d="M54 46 Q80 38 106 46 L104 104 H56 Z" fill="#4A3A2E" stroke="#261C14" stroke-width="2"/><path d="M80 46 V104" stroke="#261C14" stroke-width="2"/><rect x="64" y="70" width="10" height="10" fill="#261C14"/><rect x="86" y="70" width="10" height="10" fill="#261C14"/><ellipse cx="80" cy="28" rx="13" ry="15" fill="#ECE8DC" stroke="#9A968A" stroke-width="1.5"/><path d="M71 24 q4 -3 7 0 q-1 4 -3.5 4 q-3 0 -3.5 -4z M89 24 q-4 -3 -7 0 q1 4 3.5 4 q3 0 3.5 -4z" fill="#0E0C0A"/><g fill="#3A3630"><circle cx="76" cy="34" r="1"/><circle cx="80" cy="35" r="1"/><circle cx="84" cy="34" r="1"/><circle cx="78" cy="38" r="1"/><circle cx="82" cy="38" r="1"/><circle cx="80" cy="18" r="1"/></g><path d="M69 19 l4 -3 l3 3 M91 19 l-4 -3 l-3 3" stroke="#C8323A" stroke-width="2" fill="none"/><path d="M67 26 h-4 M93 26 h4" stroke="#3A2A20" stroke-width="2.5"/><path d="M58 48 l-8 38 h10 l6 -36z" fill="#4A3A2E" stroke="#261C14" stroke-width="1.5"/><circle cx="54" cy="88" r="6" fill="#1E1A18"/><path d="M102 48 l18 -34 l8 6 l-16 34z" fill="#4A3A2E" stroke="#261C14" stroke-width="1.5"/><circle cx="124" cy="16" r="6.5" fill="#1E1A18"/><g transform="translate(124 16) rotate(-30) scale(1.25)"><rect x="-3" y="-4" width="6" height="22" rx="2" fill="#4A2E1A" stroke="#1E120A"/><path d="M-4 -4 v-32 h22 q4 0 4 4 v28z" fill="#B8BCC4" stroke="#3A3C42" stroke-width="1.5"/><path d="M14 -36 q4 0 4 4 v28 h-4z" fill="#E8ECF2"/><circle cx="2" cy="-30" r="2.4" fill="#3A3C42"/></g><path d="M134 -4 q14 20 4 44" stroke="#FFF" stroke-width="3" opacity=".5" fill="none"/></g><g transform="translate(-30 160) scale(1.15)"><ellipse cx="80" cy="156" rx="28" ry="5" fill="#000" opacity=".35"/><path d="M53 52 L63 52 L56 84 L46 84Z" fill="#F2C230" stroke="#96781e" stroke-width="1.5"/><circle cx="51" cy="88" r="5.5" fill="#F0CBA4" stroke="#ad9276"/><path d="M97 52 L107 52 L108 92 L98 92Z" fill="#F2C230" stroke="#96781e" stroke-width="1.5"/><circle cx="103" cy="96" r="5.5" fill="#F0CBA4" stroke="#ad9276"/><path d="M62 98 h16 l-1 46 h-14z" fill="#2E4E7A" stroke="#1c2f49" stroke-width="1.5"/><path d="M61 142 h17 q3 0 3 6 v4 h-21z" fill="#C8322A" stroke="#6e1c17" stroke-width="1.5"/><path d="M82 98 h16 l-1 50 h-14z" fill="#2E4E7A" stroke="#1c2f49" stroke-width="1.5"/><path d="M81 146 h17 q3 0 3 6 v4 h-21z" fill="#C8322A" stroke="#6e1c17" stroke-width="1.5"/><path d="M58 50 Q80 44 102 50 L100 100 H60 Z" fill="#F2C230" stroke="#96781e" stroke-width="2"/><path d="M64 48 q16 16 32 0 q-2 12 -16 12 q-14 0 -16 -12z" fill="#96781e"/><rect x="75" y="42" width="10" height="10" fill="#ad9276"/><ellipse cx="80" cy="32" rx="13" ry="14" fill="#F0CBA4" stroke="#ad9276" stroke-width="1.5"/><ellipse cx="80" cy="31" rx="14" ry="15" fill="#16141A"/><path d="M76 36 q-2 18 4 26 q6 -8 4 -26z" fill="#16141A"/></g><g transform="translate(330 150) scale(1.1)"><ellipse cx="80" cy="156" rx="28" ry="5" fill="#000" opacity=".35"/><path d="M62 98 h16 l-1 50 h-14z" fill="#4A4A52" stroke="#2c2c31" stroke-width="1.5"/><path d="M61 146 h17 q3 0 3 6 v4 h-21z" fill="#EEE" stroke="#000883" stroke-width="1.5"/><path d="M82 98 h16 l-1 50 h-14z" fill="#4A4A52" stroke="#2c2c31" stroke-width="1.5"/><path d="M81 146 h17 q3 0 3 6 v4 h-21z" fill="#EEE" stroke="#000883" stroke-width="1.5"/><path d="M58 50 Q80 44 102 50 L100 100 H60 Z" fill="#E8782A" stroke="#904a1a" stroke-width="2"/><path d="M75 50 h10 v54 h-10z" fill="#F2F2F2"/><path d="M60 70 h40" stroke="#F2E85A" stroke-width="3"/><path d="M60 82 h40" stroke="#F2E85A" stroke-width="3"/><rect x="75" y="42" width="10" height="10" fill="#442a1b"/><ellipse cx="80" cy="32" rx="13" ry="14" fill="#5E3A26" stroke="#442a1b" stroke-width="1.5"/><ellipse cx="67" cy="33" rx="2.5" ry="4" fill="#5E3A26" stroke="#442a1b"/><ellipse cx="93" cy="33" rx="2.5" ry="4" fill="#5E3A26" stroke="#442a1b"/><ellipse cx="75" cy="33" rx="2.6" ry="3.6" fill="#FFF"/><ellipse cx="85" cy="33" rx="2.6" ry="3.6" fill="#FFF"/><circle cx="75" cy="33.5" r="1.6" fill="#1A1414"/><circle cx="85" cy="33.5" r="1.6" fill="#1A1414"/><path d="M72 28 l5 -2 M88 28 l-5 -2" stroke="#120e0e" stroke-width="1.8" stroke-linecap="round"/><ellipse cx="80" cy="40" rx="3" ry="3.5" fill="#5A2A22"/><path d="M66 31 q0 -17 14 -17 q14 0 14 17 q-6 -8 -14 -8 q-8 0 -14 8z" fill="#141010"/><path d="M65 28 q0 -17 15 -17 q15 0 15 17z" fill="#2A4AA8"/><path d="M66 27 q14 -4 28 0 q-14 8 -28 0z" fill="#1E3680"/><circle cx="80" cy="19" r="3" fill="#F2F2F2"/><path d="M53 52 L63 52 L56 88 L46 88Z" fill="#E8782A" stroke="#904a1a" stroke-width="1.5"/><circle cx="51" cy="92" r="5.5" fill="#5E3A26" stroke="#442a1b"/><path d="M97 52 L107 52 L108 88 L98 88Z" fill="#E8782A" stroke="#904a1a" stroke-width="1.5"/><circle cx="103" cy="92" r="5.5" fill="#5E3A26" stroke="#442a1b"/></g><g transform="translate(40 200) scale(0.9)"><ellipse cx="80" cy="156" rx="28" ry="5" fill="#000" opacity=".35"/><path d="M53 52 L63 52 L56 92 L46 92Z" fill="#E85A9A" stroke="#90385f" stroke-width="1.5"/><circle cx="51" cy="96" r="5.5" fill="#9A6440" stroke="#6f482e"/><path d="M97 52 L107 52 L108 84 L98 84Z" fill="#E85A9A" stroke="#90385f" stroke-width="1.5"/><circle cx="103" cy="88" r="5.5" fill="#9A6440" stroke="#6f482e"/><path d="M62 98 h16 l-1 50 h-14z" fill="#2E3A5A" stroke="#1c2336" stroke-width="1.5"/><path d="M61 146 h17 q3 0 3 6 v4 h-21z" fill="#FFF" stroke="#00088c" stroke-width="1.5"/><path d="M82 98 h16 l-1 46 h-14z" fill="#2E3A5A" stroke="#1c2336" stroke-width="1.5"/><path d="M81 142 h17 q3 0 3 6 v4 h-21z" fill="#FFF" stroke="#00088c" stroke-width="1.5"/><path d="M58 50 Q80 44 102 50 L100 100 H60 Z" fill="#E85A9A" stroke="#90385f" stroke-width="2"/><rect x="75" y="42" width="10" height="10" fill="#6f482e"/><ellipse cx="80" cy="32" rx="13" ry="14" fill="#9A6440" stroke="#6f482e" stroke-width="1.5"/><ellipse cx="80" cy="31" rx="14" ry="15" fill="#0E0C10"/><path d="M66 32 q-2 24 4 30 h20 q6 -6 4 -30z" fill="#0E0C10"/></g><g transform="translate(372 180) scale(0.6)"><defs><linearGradient id="gb" x1="0" x2="1" y1="0" y2="0"><stop offset="0" stop-color="#4A4230"/><stop offset=".55" stop-color="#8A7E5E"/><stop offset="1" stop-color="#4A4230"/></linearGradient><radialGradient id="gl"><stop offset="0" stop-color="#FFF6C0" stop-opacity="0.8"/><stop offset="1" stop-color="#FFE070" stop-opacity="0"/></radialGradient></defs><circle cx="80" cy="34" r="46" fill="url(#gl)"/><ellipse cx="80" cy="156" rx="60" ry="6" fill="#000" opacity=".4"/><rect x="26" y="78" width="108" height="76" rx="6" fill="url(#gb)" stroke="#1A1C1E" stroke-width="3"/><rect x="36" y="60" width="14" height="22" fill="#6A6E74" stroke="#1A1C1E" stroke-width="2"/><rect x="58" y="62" width="14" height="20" fill="#6A6E74" stroke="#1A1C1E" stroke-width="2"/><path d="M88 78 v-40 h24 v40" fill="none" stroke="#3A3C40" stroke-width="5"/><rect x="92" y="44" width="16" height="12" fill="#5A5E64" stroke="#1A1C1E"/><rect x="70" y="20" width="20" height="10" fill="#2A2C30"/><path d="M80 30 v48" stroke="#2A2C30" stroke-width="4"/><circle cx="80" cy="24" r="9" fill="#FFF2A0" stroke="#2A2C30" stroke-width="3"/><path d="M34 96 h92 M34 112 h92" stroke="#2A2E30" stroke-width="2"/><rect x="44" y="122" width="72" height="20" rx="3" fill="#1E2022"/><rect x="50" y="127" width="8" height="10" fill="#7CE05A"/><rect x="63" y="127" width="8" height="10" fill="#7CE05A"/><rect x="76" y="127" width="8" height="10" fill="#7CE05A"/><rect x="89" y="127" width="8" height="10" fill="#7CE05A"/><rect x="102" y="127" width="8" height="10" fill="#7CE05A"/></g><text x="245" y="70" font-family="Marker" font-weight="bold" font-size="58" text-anchor="middle" fill="#000" opacity=".6">SURVIVE UNTIL</text><text x="240" y="64" font-family="Marker" font-weight="bold" font-size="58" text-anchor="middle" fill="url(#ttl)" stroke="#120608" stroke-width="9" paint-order="stroke" stroke-linejoin="round">SURVIVE UNTIL</text><text x="245" y="132" font-family="Marker" font-weight="bold" font-size="70" text-anchor="middle" fill="#000" opacity=".6">DAYLIGHT</text><text x="240" y="126" font-family="Marker" font-weight="bold" font-size="70" text-anchor="middle" fill="url(#ttl)" stroke="#120608" stroke-width="10" paint-order="stroke" stroke-linejoin="round">DAYLIGHT</text><rect x="150" y="296" width="180" height="34" rx="17" fill="#1A0E10" stroke="#F09A3A" stroke-width="3"/><text x="240" y="319" font-family="Sans Serif" font-weight="bold" font-size="17" text-anchor="middle" fill="#FFE8C8">CLICK TO PLAY</text><rect x="318" y="334" width="156" height="20" rx="10" fill="#4C97FF" stroke="#FFF" stroke-width="2"/><text x="396" y="348" font-family="Sans Serif" font-weight="bold" font-size="11" text-anchor="middle" fill="#FFF">Made with TextToScratch</text></svg>