<svg xmlns="http://www.w3.org/2000/svg" width="480" height="170" viewBox="0 0 480 170"><g transform="translate(0 86)"><g transform="translate(22 0)"><path d="M-14 62 h28 l-4 20 h-20z" fill="#C46A2B" stroke="#3B2414" stroke-width="3" stroke-linejoin="round"/><path d="M0 62 q-20 -20 -12 -42 q10 14 12 42 q2 -30 16 -40 q6 24 -16 40" fill="#4CBF56" stroke="#3B2414" stroke-width="3" stroke-linejoin="round"/></g><g transform="translate(458 0)"><path d="M-14 62 h28 l-4 20 h-20z" fill="#C46A2B" stroke="#3B2414" stroke-width="3" stroke-linejoin="round"/><path d="M0 62 q-20 -20 -12 -42 q10 14 12 42 q2 -30 16 -40 q6 24 -16 40" fill="#4CBF56" stroke="#3B2414" stroke-width="3" stroke-linejoin="round"/></g></g><g transform="translate(0 142)"><path d="M0 6 q60 12 120 0 q60 12 120 0 q60 12 120 0 q60 12 120 0" fill="none" stroke="#3B2414" stroke-width="2"/><circle cx="10" cy="11.833333333333332" r="5" fill="#FF5C5C" stroke="#3B2414" stroke-width="1.5"/><circle cx="30" cy="14.5" r="5" fill="#FFE14D" stroke="#3B2414" stroke-width="1.5"/><circle cx="50" cy="15.833333333333332" r="5" fill="#4CA6FF" stroke="#3B2414" stroke-width="1.5"/><circle cx="70" cy="15.833333333333332" r="5" fill="#7CFF6B" stroke="#3B2414" stroke-width="1.5"/><circle cx="90" cy="14.5" r="5" fill="#FF8FB8" stroke="#3B2414" stroke-width="1.5"/><circle cx="110" cy="11.833333333333334" r="5" fill="#FF5C5C" stroke="#3B2414" stroke-width="1.5"/><circle cx="130" cy="11.833333333333332" r="5" fill="#FFE14D" stroke="#3B2414" stroke-width="1.5"/><circle cx="150" cy="14.5" r="5" fill="#4CA6FF" stroke="#3B2414" stroke-width="1.5"/><circle cx="170" cy="15.833333333333332" r="5" fill="#7CFF6B" stroke="#3B2414" stroke-width="1.5"/><circle cx="190" cy="15.833333333333332" r="5" fill="#FF8FB8" stroke="#3B2414" stroke-width="1.5"/><circle cx="210" cy="14.5" r="5" fill="#FF5C5C" stroke="#3B2414" stroke-width="1.5"/><circle cx="230" cy="11.833333333333334" r="5" fill="#FFE14D" stroke="#3B2414" stroke-width="1.5"/><circle cx="250" cy="11.833333333333332" r="5" fill="#4CA6FF" stroke="#3B2414" stroke-width="1.5"/><circle cx="270" cy="14.5" r="5" fill="#7CFF6B" stroke="#3B2414" stroke-width="1.5"/><circle cx="290" cy="15.833333333333332" r="5" fill="#FF8FB8" stroke="#3B2414" stroke-width="1.5"/><circle cx="310" cy="15.833333333333332" r="5" fill="#FF5C5C" stroke="#3B2414" stroke-width="1.5"/><circle cx="330" cy="14.5" r="5" fill="#FFE14D" stroke="#3B2414" stroke-width="1.5"/><circle cx="350" cy="11.833333333333334" r="5" fill="#4CA6FF" stroke="#3B2414" stroke-width="1.5"/><circle cx="370" cy="11.833333333333332" r="5" fill="#7CFF6B" stroke="#3B2414" stroke-width="1.5"/><circle cx="390" cy="14.5" r="5" fill="#FF8FB8" stroke="#3B2414" stroke-width="1.5"/><circle cx="410" cy="15.833333333333332" r="5" fill="#FF5C5C" stroke="#3B2414" stroke-width="1.5"/><circle cx="430" cy="15.833333333333332" r="5" fill="#FFE14D" stroke="#3B2414" stroke-width="1.5"/><circle cx="450" cy="14.5" r="5" fill="#4CA6FF" stroke="#3B2414" stroke-width="1.5"/><circle cx="470" cy="11.833333333333334" r="5" fill="#7CFF6B" stroke="#3B2414" stroke-width="1.5"/></g></svg>